<svg viewBox="0 0 400 400" xmlns="http://www.w3.org/2000/svg">
  <path d="M146.237 8.146c-32.325 4.007-42.402 31.503-26.436 72.133 8.79 22.37 24.733 48.353 48.682 79.339 10.46 13.534 10.56 13.865 6.021 19.919-1.344 1.792-3.099 4.657-3.902 6.365-4.482 9.546-3.948 9.375-21.737 6.958-40.991-5.568-70.627 5.393-89.079 32.947-31.688 47.318-13.225 131.509 29.165 132.996 30.412 1.067 61.91-37.585 92.998-114.12 5.243-12.907 5.724-13.341 13.714-12.332 3.484.44 5.465.439 8.812-.007 7.638-1.017 8.452-.332 12.962 10.906 17.405 43.365 41.607 63.907 76.948 65.312 60.512 2.405 123.754-61.519 95.73-96.762-17.986-22.62-64.002-28.86-139.388-18.903-16.582 2.19-17.548 1.979-20.095-4.383-1.401-3.498-2.847-5.967-5.66-9.662-3.843-5.046-3.498-6.262 4.811-16.954 25.512-32.831 32.038-61.284 20.694-90.235-14.678-37.459-65.353-68.337-104.24-63.517m59.674 169.37c25.248 6.72 21.781 43.968-4.238 45.535-14.076.848-24.851-9.375-24.851-23.579 0-14.779 14.613-25.809 29.089-21.956" fill="currentColor" fill-rule="evenodd" />
</svg>
